<mxfile host="Electron" agent="Mozilla/5.0 (Windows NT 10.0; Win64; x64) AppleWebKit/537.36 (KHTML, like Gecko) draw.io/24.7.17 Chrome/128.0.6613.36 Electron/32.0.1 Safari/537.36" version="24.7.17">
  <diagram name="Page-1" id="vQnwWi5R71VoBJ2wnbkj">
    <mxGraphModel dx="1032" dy="698" grid="1" gridSize="10" guides="1" tooltips="1" connect="1" arrows="1" fold="1" page="1" pageScale="1" pageWidth="850" pageHeight="1100" math="0" shadow="0">
      <root>
        <mxCell id="0" />
        <mxCell id="1" parent="0" />
        <mxCell id="7yKE0VQRPhiWAM1Ha-vK-1" value="" style="edgeStyle=orthogonalEdgeStyle;rounded=0;orthogonalLoop=1;jettySize=auto;html=1;" edge="1" parent="1" source="shrYG_i2Be6IJjJ4tJXh-1" target="shrYG_i2Be6IJjJ4tJXh-2">
          <mxGeometry relative="1" as="geometry" />
        </mxCell>
        <mxCell id="shrYG_i2Be6IJjJ4tJXh-1" value="Frontend" style="rounded=0;whiteSpace=wrap;html=1;" parent="1" vertex="1">
          <mxGeometry x="241.67000000000002" y="380" width="120" height="60" as="geometry" />
        </mxCell>
        <mxCell id="7yKE0VQRPhiWAM1Ha-vK-2" value="" style="edgeStyle=orthogonalEdgeStyle;rounded=0;orthogonalLoop=1;jettySize=auto;html=1;" edge="1" parent="1" source="shrYG_i2Be6IJjJ4tJXh-2" target="shrYG_i2Be6IJjJ4tJXh-7">
          <mxGeometry relative="1" as="geometry" />
        </mxCell>
        <mxCell id="shrYG_i2Be6IJjJ4tJXh-2" value="Api" style="rounded=0;whiteSpace=wrap;html=1;" parent="1" vertex="1">
          <mxGeometry x="241.67" y="520" width="120" height="60" as="geometry" />
        </mxCell>
        <mxCell id="shrYG_i2Be6IJjJ4tJXh-7" value="DB&lt;br&gt;Songs" style="shape=cylinder3;whiteSpace=wrap;html=1;boundedLbl=1;backgroundOutline=1;size=15;" parent="1" vertex="1">
          <mxGeometry x="490" y="510" width="60" height="80" as="geometry" />
        </mxCell>
        <mxCell id="7yKE0VQRPhiWAM1Ha-vK-4" value="" style="edgeStyle=orthogonalEdgeStyle;rounded=0;orthogonalLoop=1;jettySize=auto;html=1;" edge="1" parent="1" source="7yKE0VQRPhiWAM1Ha-vK-3" target="shrYG_i2Be6IJjJ4tJXh-7">
          <mxGeometry relative="1" as="geometry" />
        </mxCell>
        <mxCell id="7yKE0VQRPhiWAM1Ha-vK-3" value="Migrator" style="rounded=0;whiteSpace=wrap;html=1;" vertex="1" parent="1">
          <mxGeometry x="460" y="380" width="120" height="60" as="geometry" />
        </mxCell>
      </root>
    </mxGraphModel>
  </diagram>
</mxfile>
